<?xml version="1.0" encoding="UTF-8" standalone="no"?>
<!DOCTYPE svg PUBLIC "-//W3C//DTD SVG 1.1//EN"
 "http://www.w3.org/Graphics/SVG/1.1/DTD/svg11.dtd">
<!-- Generated by graphviz version 2.38.0 (20140413.2041)
 -->
<!-- Title: G Pages: 1 -->
<svg width="666pt" height="1468pt"
 viewBox="0.00 0.00 666.17 1468.00" xmlns="http://www.w3.org/2000/svg" xmlns:xlink="http://www.w3.org/1999/xlink">
<g id="graph0" class="graph" transform="scale(1 1) rotate(0) translate(4 1464)">
<title>G</title>
<polygon fill="white" stroke="none" points="-4,4 -4,-1464 662.167,-1464 662.167,4 -4,4"/>
<g id="clust1" class="cluster"><title>cluster_Global</title>
<path fill="none" stroke="gray" d="M100.084,-44C100.084,-44 638.167,-44 638.167,-44 644.167,-44 650.167,-50 650.167,-56 650.167,-56 650.167,-1440 650.167,-1440 650.167,-1446 644.167,-1452 638.167,-1452 638.167,-1452 100.084,-1452 100.084,-1452 94.0836,-1452 88.0836,-1446 88.0836,-1440 88.0836,-1440 88.0836,-56 88.0836,-56 88.0836,-50 94.0836,-44 100.084,-44"/>
<text text-anchor="middle" x="369.125" y="-1439.2" font-family="Times,serif" font-size="11.00" fill="gray">Global</text>
</g>
<g id="clust2" class="cluster"><title>cluster_\App</title>
<path fill="none" stroke="gray" d="M108.084,-52C108.084,-52 630.167,-52 630.167,-52 636.167,-52 642.167,-58 642.167,-64 642.167,-64 642.167,-1412 642.167,-1412 642.167,-1418 636.167,-1424 630.167,-1424 630.167,-1424 108.084,-1424 108.084,-1424 102.084,-1424 96.0836,-1418 96.0836,-1412 96.0836,-1412 96.0836,-64 96.0836,-64 96.0836,-58 102.084,-52 108.084,-52"/>
<text text-anchor="middle" x="369.125" y="-1411.2" font-family="Times,serif" font-size="11.00" fill="gray">App</text>
</g>
<g id="clust3" class="cluster"><title>cluster_\App\Storage</title>
<path fill="none" stroke="gray" d="M116.084,-1054C116.084,-1054 598.667,-1054 598.667,-1054 604.667,-1054 610.667,-1060 610.667,-1066 610.667,-1066 610.667,-1384 610.667,-1384 610.667,-1390 604.667,-1396 598.667,-1396 598.667,-1396 116.084,-1396 116.084,-1396 110.084,-1396 104.084,-1390 104.084,-1384 104.084,-1384 104.084,-1066 104.084,-1066 104.084,-1060 110.084,-1054 116.084,-1054"/>
<text text-anchor="middle" x="357.375" y="-1383.2" font-family="Times,serif" font-size="11.00" fill="gray">Storage</text>
</g>
<g id="clust4" class="cluster"><title>cluster_\App\Domain</title>
<path fill="none" stroke="gray" d="M153.084,-866C153.084,-866 588.667,-866 588.667,-866 594.667,-866 600.667,-872 600.667,-878 600.667,-878 600.667,-1034 600.667,-1034 600.667,-1040 594.667,-1046 588.667,-1046 588.667,-1046 153.084,-1046 153.084,-1046 147.084,-1046 141.084,-1040 141.084,-1034 141.084,-1034 141.084,-878 141.084,-878 141.084,-872 147.084,-866 153.084,-866"/>
<text text-anchor="middle" x="370.875" y="-1033.2" font-family="Times,serif" font-size="11.00" fill="gray">Domain</text>
</g>
<g id="clust5" class="cluster"><title>cluster_\App\Middleware</title>
<path fill="none" stroke="gray" d="M146.584,-678C146.584,-678 622.167,-678 622.167,-678 628.167,-678 634.167,-684 634.167,-690 634.167,-690 634.167,-846 634.167,-846 634.167,-852 628.167,-858 622.167,-858 622.167,-858 146.584,-858 146.584,-858 140.584,-858 134.584,-852 134.584,-846 134.584,-846 134.584,-690 134.584,-690 134.584,-684 140.584,-678 146.584,-678"/>
<text text-anchor="middle" x="384.375" y="-845.2" font-family="Times,serif" font-size="11.00" fill="gray">Middleware</text>
</g>
<g id="clust6" class="cluster"><title>cluster_\App\Models</title>
<path fill="none" stroke="gray" d="M458.667,-544C458.667,-544 608.667,-544 608.667,-544 614.667,-544 620.667,-550 620.667,-556 620.667,-556 620.667,-658 620.667,-658 620.667,-664 614.667,-670 608.667,-670 608.667,-670 458.667,-670 458.667,-670 452.667,-670 446.667,-664 446.667,-658 446.667,-658 446.667,-556 446.667,-556 446.667,-550 452.667,-544 458.667,-544"/>
<text text-anchor="middle" x="533.667" y="-657.2" font-family="Times,serif" font-size="11.00" fill="gray">Models</text>
</g>
<g id="clust7" class="cluster"><title>cluster_\App\Auth</title>
<path fill="none" stroke="gray" d="M510.667,-464C510.667,-464 556.667,-464 556.667,-464 562.667,-464 568.667,-470 568.667,-476 568.667,-476 568.667,-524 568.667,-524 568.667,-530 562.667,-536 556.667,-536 556.667,-536 510.667,-536 510.667,-536 504.667,-536 498.667,-530 498.667,-524 498.667,-524 498.667,-476 498.667,-476 498.667,-470 504.667,-464 510.667,-464"/>
<text text-anchor="middle" x="533.667" y="-523.2" font-family="Times,serif" font-size="11.00" fill="gray">Auth</text>
</g>
<g id="clust8" class="cluster"><title>cluster_\App\Validation</title>
<path fill="none" stroke="gray" d="M499.167,-384C499.167,-384 568.167,-384 568.167,-384 574.167,-384 580.167,-390 580.167,-396 580.167,-396 580.167,-444 580.167,-444 580.167,-450 574.167,-456 568.167,-456 568.167,-456 499.167,-456 499.167,-456 493.167,-456 487.167,-450 487.167,-444 487.167,-444 487.167,-396 487.167,-396 487.167,-390 493.167,-384 499.167,-384"/>
<text text-anchor="middle" x="533.667" y="-443.2" font-family="Times,serif" font-size="11.00" fill="gray">Validation</text>
</g>
<g id="clust9" class="cluster"><title>cluster_\App\Controller</title>
<path fill="none" stroke="gray" d="M146.584,-60C146.584,-60 598.667,-60 598.667,-60 604.667,-60 610.667,-66 610.667,-72 610.667,-72 610.667,-364 610.667,-364 610.667,-370 604.667,-376 598.667,-376 598.667,-376 146.584,-376 146.584,-376 140.584,-376 134.584,-370 134.584,-364 134.584,-364 134.584,-72 134.584,-72 134.584,-66 140.584,-60 146.584,-60"/>
<text text-anchor="middle" x="372.625" y="-363.2" font-family="Times,serif" font-size="11.00" fill="gray">Controller</text>
</g>
<g id="clust10" class="cluster"><title>cluster_\App\Controller\Auth</title>
<path fill="none" stroke="gray" d="M482.167,-276C482.167,-276 585.167,-276 585.167,-276 591.167,-276 597.167,-282 597.167,-288 597.167,-288 597.167,-336 597.167,-336 597.167,-342 591.167,-348 585.167,-348 585.167,-348 482.167,-348 482.167,-348 476.167,-348 470.167,-342 470.167,-336 470.167,-336 470.167,-288 470.167,-288 470.167,-282 476.167,-276 482.167,-276"/>
<text text-anchor="middle" x="533.667" y="-335.2" font-family="Times,serif" font-size="11.00" fill="gray">Auth</text>
</g>
<!-- \\App\\Storage\\MemoryStorage -->
<g id="node1" class="node"><title>\\App\\Storage\\MemoryStorage</title>
<polygon fill="none" stroke="black" points="585.667,-1368 481.667,-1368 481.667,-1332 585.667,-1332 585.667,-1368"/>
<text text-anchor="middle" x="533.667" y="-1347.2" font-family="Courier,monospace" font-size="11.00">MemoryStorage</text>
</g>
<!-- \\App\\Storage\\AdapterInterface -->
<g id="node7" class="node"><title>\\App\\Storage\\AdapterInterface</title>
<polygon fill="none" stroke="black" points="247.084,-1314 122.084,-1314 122.084,-1278 247.084,-1278 247.084,-1314"/>
<text text-anchor="middle" x="184.584" y="-1293.2" font-family="Courier,monospace" font-size="11.00">AdapterInterface</text>
</g>
<!-- \\App\\Storage\\MemoryStorage&#45;&gt;\\App\\Storage\\AdapterInterface -->
<g id="edge1" class="edge"><title>\\App\\Storage\\MemoryStorage&#45;&gt;\\App\\Storage\\AdapterInterface</title>
<path fill="none" stroke="black" stroke-dasharray="1,5" d="M481.454,-1342.03C422.175,-1332.81 324.151,-1317.56 257.308,-1307.16"/>
<polygon fill="none" stroke="black" points="257.689,-1303.68 247.27,-1305.6 256.613,-1310.59 257.689,-1303.68"/>
</g>
<!-- \\App\\Storage\\UserRepository -->
<g id="node2" class="node"><title>\\App\\Storage\\UserRepository</title>
<polygon fill="none" stroke="black" points="589.167,-1206 478.167,-1206 478.167,-1170 589.167,-1170 589.167,-1206"/>
<text text-anchor="middle" x="533.667" y="-1185.2" font-family="Courier,monospace" font-size="11.00">UserRepository</text>
</g>
<!-- \\App\\Storage\\RepositoryInterface -->
<g id="node8" class="node"><title>\\App\\Storage\\RepositoryInterface</title>
<polygon fill="none" stroke="black" points="257.084,-1152 112.084,-1152 112.084,-1116 257.084,-1116 257.084,-1152"/>
<text text-anchor="middle" x="184.584" y="-1131.2" font-family="Courier,monospace" font-size="11.00">RepositoryInterface</text>
</g>
<!-- \\App\\Storage\\UserRepository&#45;&gt;\\App\\Storage\\RepositoryInterface -->
<g id="edge3" class="edge"><title>\\App\\Storage\\UserRepository&#45;&gt;\\App\\Storage\\RepositoryInterface</title>
<path fill="none" stroke="black" stroke-dasharray="1,5" d="M478.054,-1179.5C421.516,-1170.71 332.529,-1156.86 267.549,-1146.75"/>
<polygon fill="none" stroke="black" points="267.754,-1143.24 257.335,-1145.16 266.678,-1150.16 267.754,-1143.24"/>
</g>
<!-- \\App\\Storage\\EloquentPlugin -->
<g id="node3" class="node"><title>\\App\\Storage\\EloquentPlugin</title>
<polygon fill="none" stroke="black" points="589.167,-1314 478.167,-1314 478.167,-1278 589.167,-1278 589.167,-1314"/>
<text text-anchor="middle" x="533.667" y="-1293.2" font-family="Courier,monospace" font-size="11.00">EloquentPlugin</text>
</g>
<!-- \\App\\Storage\\EloquentPlugin&#45;&gt;\\App\\Storage\\AdapterInterface -->
<g id="edge4" class="edge"><title>\\App\\Storage\\EloquentPlugin&#45;&gt;\\App\\Storage\\AdapterInterface</title>
<path fill="none" stroke="black" stroke-dasharray="1,5" d="M478.054,-1296C418.526,-1296 323.027,-1296 257.45,-1296"/>
<polygon fill="none" stroke="black" points="257.192,-1292.5 247.192,-1296 257.192,-1299.5 257.192,-1292.5"/>
</g>
<!-- \\App\\Storage\\MemoryPlugin -->
<g id="node4" class="node"><title>\\App\\Storage\\MemoryPlugin</title>
<polygon fill="none" stroke="black" points="582.667,-1260 484.667,-1260 484.667,-1224 582.667,-1224 582.667,-1260"/>
<text text-anchor="middle" x="533.667" y="-1239.2" font-family="Courier,monospace" font-size="11.00">MemoryPlugin</text>
</g>
<!-- \\App\\Storage\\MemoryPlugin&#45;&gt;\\App\\Storage\\AdapterInterface -->
<g id="edge5" class="edge"><title>\\App\\Storage\\MemoryPlugin&#45;&gt;\\App\\Storage\\AdapterInterface</title>
<path fill="none" stroke="black" stroke-dasharray="1,5" d="M484.407,-1249.51C425.497,-1258.67 325.346,-1274.26 257.382,-1284.83"/>
<polygon fill="none" stroke="black" points="256.522,-1281.42 247.179,-1286.42 257.598,-1288.34 256.522,-1281.42"/>
</g>
<!-- \\App\\Storage\\AnswersRepository -->
<g id="node5" class="node"><title>\\App\\Storage\\AnswersRepository</title>
<polygon fill="none" stroke="black" points="599.167,-1152 468.167,-1152 468.167,-1116 599.167,-1116 599.167,-1152"/>
<text text-anchor="middle" x="533.667" y="-1131.2" font-family="Courier,monospace" font-size="11.00">AnswersRepository</text>
</g>
<!-- \\App\\Storage\\AnswersRepository&#45;&gt;\\App\\Storage\\RepositoryInterface -->
<g id="edge6" class="edge"><title>\\App\\Storage\\AnswersRepository&#45;&gt;\\App\\Storage\\RepositoryInterface</title>
<path fill="none" stroke="black" stroke-dasharray="1,5" d="M467.791,-1134C411.103,-1134 328.531,-1134 267.337,-1134"/>
<polygon fill="none" stroke="black" points="267.324,-1130.5 257.324,-1134 267.324,-1137.5 267.324,-1130.5"/>
</g>
<!-- \\App\\Storage\\QuestionRepository -->
<g id="node6" class="node"><title>\\App\\Storage\\QuestionRepository</title>
<polygon fill="none" stroke="black" points="602.667,-1098 464.667,-1098 464.667,-1062 602.667,-1062 602.667,-1098"/>
<text text-anchor="middle" x="533.667" y="-1077.2" font-family="Courier,monospace" font-size="11.00">QuestionRepository</text>
</g>
<!-- \\App\\Storage\\QuestionRepository&#45;&gt;\\App\\Storage\\RepositoryInterface -->
<g id="edge10" class="edge"><title>\\App\\Storage\\QuestionRepository&#45;&gt;\\App\\Storage\\RepositoryInterface</title>
<path fill="none" stroke="black" stroke-dasharray="1,5" d="M464.509,-1090.6C407.961,-1099.4 327.389,-1111.94 267.37,-1121.28"/>
<polygon fill="none" stroke="black" points="266.511,-1117.87 257.168,-1122.86 267.587,-1124.78 266.511,-1117.87"/>
</g>
<!-- \\App\\Domain\\QuestionBuilder -->
<g id="node9" class="node"><title>\\App\\Domain\\QuestionBuilder</title>
<polygon fill="none" stroke="black" points="592.667,-1018 474.667,-1018 474.667,-982 592.667,-982 592.667,-1018"/>
<text text-anchor="middle" x="533.667" y="-997.2" font-family="Courier,monospace" font-size="11.00">QuestionBuilder</text>
</g>
<!-- \\App\\Domain\\Question -->
<g id="node11" class="node"><title>\\App\\Domain\\Question</title>
<polygon fill="none" stroke="black" points="220.084,-1018 149.084,-1018 149.084,-982 220.084,-982 220.084,-1018"/>
<text text-anchor="middle" x="184.584" y="-997.2" font-family="Courier,monospace" font-size="11.00">Question</text>
</g>
<!-- \\App\\Domain\\QuestionBuilder&#45;&gt;\\App\\Domain\\Question -->
<g id="edge2" class="edge"><title>\\App\\Domain\\QuestionBuilder&#45;&gt;\\App\\Domain\\Question</title>
<path fill="none" stroke="black" d="M474.573,-1000C405.798,-1000 292.751,-1000 230.385,-1000"/>
<polygon fill="none" stroke="black" points="230.089,-996.5 220.089,-1000 230.089,-1003.5 230.089,-996.5"/>
</g>
<!-- \\App\\Domain\\Answer -->
<g id="node10" class="node"><title>\\App\\Domain\\Answer</title>
<polygon fill="none" stroke="black" points="213.084,-910 156.084,-910 156.084,-874 213.084,-874 213.084,-910"/>
<text text-anchor="middle" x="184.584" y="-889.2" font-family="Courier,monospace" font-size="11.00">Answer</text>
</g>
<!-- \\App\\Domain\\UserBuilder -->
<g id="node12" class="node"><title>\\App\\Domain\\UserBuilder</title>
<polygon fill="none" stroke="black" points="579.167,-964 488.167,-964 488.167,-928 579.167,-928 579.167,-964"/>
<text text-anchor="middle" x="533.667" y="-943.2" font-family="Courier,monospace" font-size="11.00">UserBuilder</text>
</g>
<!-- \\App\\Domain\\User -->
<g id="node14" class="node"><title>\\App\\Domain\\User</title>
<polygon fill="none" stroke="black" points="211.584,-964 157.584,-964 157.584,-928 211.584,-928 211.584,-964"/>
<text text-anchor="middle" x="184.584" y="-943.2" font-family="Courier,monospace" font-size="11.00">User</text>
</g>
<!-- \\App\\Domain\\UserBuilder&#45;&gt;\\App\\Domain\\User -->
<g id="edge7" class="edge"><title>\\App\\Domain\\UserBuilder&#45;&gt;\\App\\Domain\\User</title>
<path fill="none" stroke="black" d="M488.003,-946C418.456,-946 285.646,-946 221.723,-946"/>
<polygon fill="none" stroke="black" points="221.71,-942.5 211.71,-946 221.71,-949.5 221.71,-942.5"/>
</g>
<!-- \\App\\Domain\\AnswerBuilder -->
<g id="node13" class="node"><title>\\App\\Domain\\AnswerBuilder</title>
<polygon fill="none" stroke="black" points="585.667,-910 481.667,-910 481.667,-874 585.667,-874 585.667,-910"/>
<text text-anchor="middle" x="533.667" y="-889.2" font-family="Courier,monospace" font-size="11.00">AnswerBuilder</text>
</g>
<!-- \\App\\Domain\\AnswerBuilder&#45;&gt;\\App\\Domain\\Answer -->
<g id="edge8" class="edge"><title>\\App\\Domain\\AnswerBuilder&#45;&gt;\\App\\Domain\\Answer</title>
<path fill="none" stroke="black" d="M481.454,-892C411.043,-892 285.968,-892 223.411,-892"/>
<polygon fill="none" stroke="black" points="223.204,-888.5 213.204,-892 223.204,-895.5 223.204,-888.5"/>
</g>
<!-- \\App\\Middleware\\PasswordAuthentication -->
<g id="node15" class="node"><title>\\App\\Middleware\\PasswordAuthentication</title>
<polygon fill="none" stroke="black" points="616.167,-830 451.167,-830 451.167,-794 616.167,-794 616.167,-830"/>
<text text-anchor="middle" x="533.667" y="-809.2" font-family="Courier,monospace" font-size="11.00">PasswordAuthentication</text>
</g>
<!-- \\App\\Middleware\\CsrfViewMiddleware -->
<g id="node16" class="node"><title>\\App\\Middleware\\CsrfViewMiddleware</title>
<polygon fill="none" stroke="black" points="602.667,-776 464.667,-776 464.667,-740 602.667,-740 602.667,-776"/>
<text text-anchor="middle" x="533.667" y="-755.2" font-family="Courier,monospace" font-size="11.00">CsrfViewMiddleware</text>
</g>
<!-- \\App\\Middleware\\Middleware -->
<g id="node18" class="node"><title>\\App\\Middleware\\Middleware</title>
<polygon fill="none" stroke="black" points="226.584,-749 142.584,-749 142.584,-713 226.584,-713 226.584,-749"/>
<text text-anchor="middle" x="184.584" y="-728.2" font-family="Courier,monospace" font-size="11.00">Middleware</text>
</g>
<!-- \\App\\Middleware\\CsrfViewMiddleware&#45;&gt;\\App\\Middleware\\Middleware -->
<g id="edge12" class="edge"><title>\\App\\Middleware\\CsrfViewMiddleware&#45;&gt;\\App\\Middleware\\Middleware</title>
<path fill="none" stroke="black" d="M464.509,-752.698C397.697,-747.501 297.347,-739.694 236.984,-734.999"/>
<polygon fill="none" stroke="black" points="237.165,-731.502 226.924,-734.216 236.622,-738.481 237.165,-731.502"/>
</g>
<!-- \\App\\Middleware\\ValidationErrorMiddleware -->
<g id="node17" class="node"><title>\\App\\Middleware\\ValidationErrorMiddleware</title>
<polygon fill="none" stroke="black" points="626.167,-722 441.167,-722 441.167,-686 626.167,-686 626.167,-722"/>
<text text-anchor="middle" x="533.667" y="-701.2" font-family="Courier,monospace" font-size="11.00">ValidationErrorMiddleware</text>
</g>
<!-- \\App\\Middleware\\ValidationErrorMiddleware&#45;&gt;\\App\\Middleware\\Middleware -->
<g id="edge13" class="edge"><title>\\App\\Middleware\\ValidationErrorMiddleware&#45;&gt;\\App\\Middleware\\Middleware</title>
<path fill="none" stroke="black" d="M441.021,-711.129C375.873,-716.197 290.746,-722.819 237.105,-726.992"/>
<polygon fill="none" stroke="black" points="236.51,-723.528 226.811,-727.793 237.053,-730.507 236.51,-723.528"/>
</g>
<!-- \\App\\Models\\UserEloquentModel -->
<g id="node19" class="node"><title>\\App\\Models\\UserEloquentModel</title>
<polygon fill="none" stroke="black" points="599.167,-642 468.167,-642 468.167,-606 599.167,-606 599.167,-642"/>
<text text-anchor="middle" x="533.667" y="-621.2" font-family="Courier,monospace" font-size="11.00">UserEloquentModel</text>
</g>
<!-- \\Illuminate\\Database\\Eloquent\\Model -->
<g id="node29" class="node"><title>\\Illuminate\\Database\\Eloquent\\Model</title>
<ellipse fill="none" stroke="black" cx="184.584" cy="-18" rx="184.667" ry="18"/>
<text text-anchor="middle" x="184.584" y="-14.3" font-family="Times,serif" font-size="14.00" fill="gray">\Illuminate\Database\Eloquent\Model</text>
</g>
<!-- \\App\\Models\\UserEloquentModel&#45;&gt;\\Illuminate\\Database\\Eloquent\\Model -->
<g id="edge9" class="edge"><title>\\App\\Models\\UserEloquentModel&#45;&gt;\\Illuminate\\Database\\Eloquent\\Model</title>
<path fill="none" stroke="black" d="M468.025,-615.18C457.802,-611.12 448.277,-605.304 441.167,-597 283.408,-412.746 534.42,-233.565 369.167,-56 360.506,-46.6939 350.215,-39.343 338.992,-33.5672"/>
<polygon fill="none" stroke="black" points="340.345,-30.3363 329.805,-29.2655 337.377,-36.6758 340.345,-30.3363"/>
</g>
<!-- \\App\\Models\\QuestionEloquentModel -->
<g id="node20" class="node"><title>\\App\\Models\\QuestionEloquentModel</title>
<polygon fill="none" stroke="black" points="612.667,-588 454.667,-588 454.667,-552 612.667,-552 612.667,-588"/>
<text text-anchor="middle" x="533.667" y="-567.2" font-family="Courier,monospace" font-size="11.00">QuestionEloquentModel</text>
</g>
<!-- \\App\\Models\\QuestionEloquentModel&#45;&gt;\\Illuminate\\Database\\Eloquent\\Model -->
<g id="edge11" class="edge"><title>\\App\\Models\\QuestionEloquentModel&#45;&gt;\\Illuminate\\Database\\Eloquent\\Model</title>
<path fill="none" stroke="black" d="M454.685,-551.804C449.647,-548.499 445.048,-544.6 441.167,-540 300.927,-373.779 518.548,-214.058 369.167,-56 360.347,-46.6674 349.885,-39.3088 338.497,-33.5375"/>
<polygon fill="none" stroke="black" points="339.726,-30.25 329.179,-29.2419 336.795,-36.6071 339.726,-30.25"/>
</g>
<!-- \\App\\Auth\\Auth -->
<g id="node21" class="node"><title>\\App\\Auth\\Auth</title>
<polygon fill="none" stroke="black" points="560.667,-508 506.667,-508 506.667,-472 560.667,-472 560.667,-508"/>
<text text-anchor="middle" x="533.667" y="-487.2" font-family="Courier,monospace" font-size="11.00">Auth</text>
</g>
<!-- \\App\\Validation\\Validator -->
<g id="node22" class="node"><title>\\App\\Validation\\Validator</title>
<polygon fill="none" stroke="black" points="572.167,-428 495.167,-428 495.167,-392 572.167,-392 572.167,-428"/>
<text text-anchor="middle" x="533.667" y="-407.2" font-family="Courier,monospace" font-size="11.00">Validator</text>
</g>
<!-- \\App\\Controller\\Auth\\AuthController -->
<g id="node23" class="node"><title>\\App\\Controller\\Auth\\AuthController</title>
<polygon fill="none" stroke="black" points="589.167,-320 478.167,-320 478.167,-284 589.167,-284 589.167,-320"/>
<text text-anchor="middle" x="533.667" y="-299.2" font-family="Courier,monospace" font-size="11.00">AuthController</text>
</g>
<!-- \\App\\Controller\\Controller -->
<g id="node25" class="node"><title>\\App\\Controller\\Controller</title>
<polygon fill="none" stroke="black" points="226.584,-212 142.584,-212 142.584,-176 226.584,-176 226.584,-212"/>
<text text-anchor="start" x="150.584" y="-197.2" font-family="Courier,monospace" font-size="11.00">«abstract»</text>
<text text-anchor="start" x="150.584" y="-185.2" font-family="Courier,monospace" font-size="11.00">Controller</text>
</g>
<!-- \\App\\Controller\\Auth\\AuthController&#45;&gt;\\App\\Controller\\Controller -->
<g id="edge14" class="edge"><title>\\App\\Controller\\Auth\\AuthController&#45;&gt;\\App\\Controller\\Controller</title>
<path fill="none" stroke="black" d="M477.786,-289.642C465.672,-286.681 452.943,-283.39 441.167,-280 369.315,-259.317 287.642,-230.97 236.366,-212.571"/>
<polygon fill="none" stroke="black" points="237.435,-209.236 226.841,-209.142 235.064,-215.822 237.435,-209.236"/>
</g>
<!-- \\App\\Controller\\AnswerController -->
<g id="node24" class="node"><title>\\App\\Controller\\AnswerController</title>
<polygon fill="none" stroke="black" points="596.167,-158 471.167,-158 471.167,-122 596.167,-122 596.167,-158"/>
<text text-anchor="middle" x="533.667" y="-137.2" font-family="Courier,monospace" font-size="11.00">AnswerController</text>
</g>
<!-- \\App\\Controller\\AnswerController&#45;&gt;\\App\\Controller\\Controller -->
<g id="edge15" class="edge"><title>\\App\\Controller\\AnswerController&#45;&gt;\\App\\Controller\\Controller</title>
<path fill="none" stroke="black" d="M471.016,-149.592C404.309,-159.97 299.152,-176.331 236.817,-186.029"/>
<polygon fill="none" stroke="black" points="236.161,-182.589 226.818,-187.585 237.237,-189.506 236.161,-182.589"/>
</g>
<!-- \\App\\Controller\\QuestionController -->
<g id="node26" class="node"><title>\\App\\Controller\\QuestionController</title>
<polygon fill="none" stroke="black" points="602.667,-104 464.667,-104 464.667,-68 602.667,-68 602.667,-104"/>
<text text-anchor="middle" x="533.667" y="-83.2" font-family="Courier,monospace" font-size="11.00">QuestionController</text>
</g>
<!-- \\App\\Controller\\QuestionController&#45;&gt;\\App\\Controller\\Controller -->
<g id="edge16" class="edge"><title>\\App\\Controller\\QuestionController&#45;&gt;\\App\\Controller\\Controller</title>
<path fill="none" stroke="black" d="M470.601,-104.133C460.744,-107.065 450.67,-110.092 441.167,-113 369.872,-134.814 287.736,-161.041 236.237,-177.619"/>
<polygon fill="none" stroke="black" points="235.117,-174.302 226.672,-180.7 237.264,-180.965 235.117,-174.302"/>
</g>
<!-- \\App\\Controller\\UserController -->
<g id="node27" class="node"><title>\\App\\Controller\\UserController</title>
<polygon fill="none" stroke="black" points="589.167,-266 478.167,-266 478.167,-230 589.167,-230 589.167,-266"/>
<text text-anchor="middle" x="533.667" y="-245.2" font-family="Courier,monospace" font-size="11.00">UserController</text>
</g>
<!-- \\App\\Controller\\UserController&#45;&gt;\\App\\Controller\\Controller -->
<g id="edge17" class="edge"><title>\\App\\Controller\\UserController&#45;&gt;\\App\\Controller\\Controller</title>
<path fill="none" stroke="black" d="M478.054,-239.503C411.912,-229.213 301.36,-212.013 236.789,-201.967"/>
<polygon fill="none" stroke="black" points="237.254,-198.497 226.835,-200.418 236.178,-205.414 237.254,-198.497"/>
</g>
<!-- \\App\\Controller\\HomeController -->
<g id="node28" class="node"><title>\\App\\Controller\\HomeController</title>
<polygon fill="none" stroke="black" points="589.167,-212 478.167,-212 478.167,-176 589.167,-176 589.167,-212"/>
<text text-anchor="middle" x="533.667" y="-191.2" font-family="Courier,monospace" font-size="11.00">HomeController</text>
</g>
<!-- \\App\\Controller\\HomeController&#45;&gt;\\App\\Controller\\Controller -->
<g id="edge18" class="edge"><title>\\App\\Controller\\HomeController&#45;&gt;\\App\\Controller\\Controller</title>
<path fill="none" stroke="black" d="M478.054,-194C412.048,-194 301.815,-194 237.188,-194"/>
<polygon fill="none" stroke="black" points="236.835,-190.5 226.835,-194 236.835,-197.5 236.835,-190.5"/>
</g>
</g>
</svg>
