<?xml version="1.0" encoding="UTF-8" standalone="no"?>
<!DOCTYPE svg PUBLIC "-//W3C//DTD SVG 1.1//EN"
 "http://www.w3.org/Graphics/SVG/1.1/DTD/svg11.dtd">
<!-- Generated by graphviz version 2.38.0 (20140413.2041)
 -->
<!-- Title: G Pages: 1 -->
<svg width="646pt" height="1064pt"
 viewBox="0.00 0.00 646.17 1064.00" xmlns="http://www.w3.org/2000/svg" xmlns:xlink="http://www.w3.org/1999/xlink">
<g id="graph0" class="graph" transform="scale(1 1) rotate(0) translate(4 1060)">
<title>G</title>
<polygon fill="white" stroke="none" points="-4,4 -4,-1060 642.167,-1060 642.167,4 -4,4"/>
<g id="clust1" class="cluster"><title>cluster_Global</title>
<path fill="none" stroke="gray" d="M100.084,-44C100.084,-44 618.167,-44 618.167,-44 624.167,-44 630.167,-50 630.167,-56 630.167,-56 630.167,-1036 630.167,-1036 630.167,-1042 624.167,-1048 618.167,-1048 618.167,-1048 100.084,-1048 100.084,-1048 94.0836,-1048 88.0836,-1042 88.0836,-1036 88.0836,-1036 88.0836,-56 88.0836,-56 88.0836,-50 94.0836,-44 100.084,-44"/>
<text text-anchor="middle" x="359.125" y="-1035.2" font-family="Times,serif" font-size="11.00" fill="gray">Global</text>
</g>
<g id="clust2" class="cluster"><title>cluster_\App</title>
<path fill="none" stroke="gray" d="M108.084,-52C108.084,-52 610.167,-52 610.167,-52 616.167,-52 622.167,-58 622.167,-64 622.167,-64 622.167,-1008 622.167,-1008 622.167,-1014 616.167,-1020 610.167,-1020 610.167,-1020 108.084,-1020 108.084,-1020 102.084,-1020 96.0836,-1014 96.0836,-1008 96.0836,-1008 96.0836,-64 96.0836,-64 96.0836,-58 102.084,-52 108.084,-52"/>
<text text-anchor="middle" x="359.125" y="-1007.2" font-family="Times,serif" font-size="11.00" fill="gray">App</text>
</g>
<g id="clust3" class="cluster"><title>cluster_\App\Storage</title>
<path fill="none" stroke="gray" d="M116.084,-650C116.084,-650 588.667,-650 588.667,-650 594.667,-650 600.667,-656 600.667,-662 600.667,-662 600.667,-980 600.667,-980 600.667,-986 594.667,-992 588.667,-992 588.667,-992 116.084,-992 116.084,-992 110.084,-992 104.084,-986 104.084,-980 104.084,-980 104.084,-662 104.084,-662 104.084,-656 110.084,-650 116.084,-650"/>
<text text-anchor="middle" x="352.375" y="-979.2" font-family="Times,serif" font-size="11.00" fill="gray">Storage</text>
</g>
<g id="clust4" class="cluster"><title>cluster_\App\Domain</title>
<path fill="none" stroke="gray" d="M153.084,-462C153.084,-462 578.667,-462 578.667,-462 584.667,-462 590.667,-468 590.667,-474 590.667,-474 590.667,-630 590.667,-630 590.667,-636 584.667,-642 578.667,-642 578.667,-642 153.084,-642 153.084,-642 147.084,-642 141.084,-636 141.084,-630 141.084,-630 141.084,-474 141.084,-474 141.084,-468 147.084,-462 153.084,-462"/>
<text text-anchor="middle" x="365.875" y="-629.2" font-family="Times,serif" font-size="11.00" fill="gray">Domain</text>
</g>
<g id="clust5" class="cluster"><title>cluster_\App\Actions</title>
<path fill="none" stroke="gray" d="M475.667,-274C475.667,-274 571.667,-274 571.667,-274 577.667,-274 583.667,-280 583.667,-286 583.667,-286 583.667,-442 583.667,-442 583.667,-448 577.667,-454 571.667,-454 571.667,-454 475.667,-454 475.667,-454 469.667,-454 463.667,-448 463.667,-442 463.667,-442 463.667,-286 463.667,-286 463.667,-280 469.667,-274 475.667,-274"/>
<text text-anchor="middle" x="523.667" y="-441.2" font-family="Times,serif" font-size="11.00" fill="gray">Actions</text>
</g>
<g id="clust6" class="cluster"><title>cluster_\App\Models</title>
<path fill="none" stroke="gray" d="M448.667,-140C448.667,-140 598.667,-140 598.667,-140 604.667,-140 610.667,-146 610.667,-152 610.667,-152 610.667,-254 610.667,-254 610.667,-260 604.667,-266 598.667,-266 598.667,-266 448.667,-266 448.667,-266 442.667,-266 436.667,-260 436.667,-254 436.667,-254 436.667,-152 436.667,-152 436.667,-146 442.667,-140 448.667,-140"/>
<text text-anchor="middle" x="523.667" y="-253.2" font-family="Times,serif" font-size="11.00" fill="gray">Models</text>
</g>
<g id="clust7" class="cluster"><title>cluster_\App\Middleware</title>
<path fill="none" stroke="gray" d="M445.167,-60C445.167,-60 602.167,-60 602.167,-60 608.167,-60 614.167,-66 614.167,-72 614.167,-72 614.167,-120 614.167,-120 614.167,-126 608.167,-132 602.167,-132 602.167,-132 445.167,-132 445.167,-132 439.167,-132 433.167,-126 433.167,-120 433.167,-120 433.167,-72 433.167,-72 433.167,-66 439.167,-60 445.167,-60"/>
<text text-anchor="middle" x="523.667" y="-119.2" font-family="Times,serif" font-size="11.00" fill="gray">Middleware</text>
</g>
<!-- \\App\\Storage\\MemoryStorage -->
<g id="node1" class="node"><title>\\App\\Storage\\MemoryStorage</title>
<polygon fill="none" stroke="black" points="575.667,-802 471.667,-802 471.667,-766 575.667,-766 575.667,-802"/>
<text text-anchor="middle" x="523.667" y="-781.2" font-family="Courier,monospace" font-size="11.00">MemoryStorage</text>
</g>
<!-- \\App\\Storage\\AdapterInterface -->
<g id="node7" class="node"><title>\\App\\Storage\\AdapterInterface</title>
<polygon fill="none" stroke="black" points="247.084,-748 122.084,-748 122.084,-712 247.084,-712 247.084,-748"/>
<text text-anchor="middle" x="184.584" y="-727.2" font-family="Courier,monospace" font-size="11.00">AdapterInterface</text>
</g>
<!-- \\App\\Storage\\MemoryStorage&#45;&gt;\\App\\Storage\\AdapterInterface -->
<g id="edge1" class="edge"><title>\\App\\Storage\\MemoryStorage&#45;&gt;\\App\\Storage\\AdapterInterface</title>
<path fill="none" stroke="black" stroke-dasharray="1,5" d="M471.471,-775.799C414.392,-766.655 321.664,-751.8 257.359,-741.498"/>
<polygon fill="none" stroke="black" points="257.72,-738.011 247.292,-739.886 256.612,-744.923 257.72,-738.011"/>
</g>
<!-- \\App\\Storage\\UserRepository -->
<g id="node2" class="node"><title>\\App\\Storage\\UserRepository</title>
<polygon fill="none" stroke="black" points="579.167,-964 468.167,-964 468.167,-928 579.167,-928 579.167,-964"/>
<text text-anchor="middle" x="523.667" y="-943.2" font-family="Courier,monospace" font-size="11.00">UserRepository</text>
</g>
<!-- \\App\\Storage\\RepositoryInterface -->
<g id="node8" class="node"><title>\\App\\Storage\\RepositoryInterface</title>
<polygon fill="none" stroke="black" points="257.084,-910 112.084,-910 112.084,-874 257.084,-874 257.084,-910"/>
<text text-anchor="middle" x="184.584" y="-889.2" font-family="Courier,monospace" font-size="11.00">RepositoryInterface</text>
</g>
<!-- \\App\\Storage\\UserRepository&#45;&gt;\\App\\Storage\\RepositoryInterface -->
<g id="edge2" class="edge"><title>\\App\\Storage\\UserRepository&#45;&gt;\\App\\Storage\\RepositoryInterface</title>
<path fill="none" stroke="black" stroke-dasharray="1,5" d="M468.134,-937.264C413.859,-928.569 329.888,-915.117 267.577,-905.135"/>
<polygon fill="none" stroke="black" points="267.809,-901.628 257.381,-903.502 266.701,-908.54 267.809,-901.628"/>
</g>
<!-- \\App\\Storage\\AnswersRepository -->
<g id="node3" class="node"><title>\\App\\Storage\\AnswersRepository</title>
<polygon fill="none" stroke="black" points="589.167,-910 458.167,-910 458.167,-874 589.167,-874 589.167,-910"/>
<text text-anchor="middle" x="523.667" y="-889.2" font-family="Courier,monospace" font-size="11.00">AnswersRepository</text>
</g>
<!-- \\App\\Storage\\AnswersRepository&#45;&gt;\\App\\Storage\\RepositoryInterface -->
<g id="edge5" class="edge"><title>\\App\\Storage\\AnswersRepository&#45;&gt;\\App\\Storage\\RepositoryInterface</title>
<path fill="none" stroke="black" stroke-dasharray="1,5" d="M458.073,-892C403.881,-892 326.166,-892 267.589,-892"/>
<polygon fill="none" stroke="black" points="267.254,-888.5 257.254,-892 267.254,-895.5 267.254,-888.5"/>
</g>
<!-- \\App\\Storage\\QuestionRepository -->
<g id="node4" class="node"><title>\\App\\Storage\\QuestionRepository</title>
<polygon fill="none" stroke="black" points="592.667,-856 454.667,-856 454.667,-820 592.667,-820 592.667,-856"/>
<text text-anchor="middle" x="523.667" y="-835.2" font-family="Courier,monospace" font-size="11.00">QuestionRepository</text>
</g>
<!-- \\App\\Storage\\QuestionRepository&#45;&gt;\\App\\Storage\\RepositoryInterface -->
<g id="edge6" class="edge"><title>\\App\\Storage\\QuestionRepository&#45;&gt;\\App\\Storage\\RepositoryInterface</title>
<path fill="none" stroke="black" stroke-dasharray="1,5" d="M454.453,-848.928C400.372,-857.591 324.622,-869.726 267.303,-878.909"/>
<polygon fill="none" stroke="black" points="266.507,-875.492 257.186,-880.529 267.614,-882.403 266.507,-875.492"/>
</g>
<!-- \\App\\Storage\\EloquentPlugin -->
<g id="node5" class="node"><title>\\App\\Storage\\EloquentPlugin</title>
<polygon fill="none" stroke="black" points="579.167,-748 468.167,-748 468.167,-712 579.167,-712 579.167,-748"/>
<text text-anchor="middle" x="523.667" y="-727.2" font-family="Courier,monospace" font-size="11.00">EloquentPlugin</text>
</g>
<!-- \\App\\Storage\\EloquentPlugin&#45;&gt;\\App\\Storage\\AdapterInterface -->
<g id="edge7" class="edge"><title>\\App\\Storage\\EloquentPlugin&#45;&gt;\\App\\Storage\\AdapterInterface</title>
<path fill="none" stroke="black" stroke-dasharray="1,5" d="M468.134,-730C410.858,-730 320.513,-730 257.45,-730"/>
<polygon fill="none" stroke="black" points="257.182,-726.5 247.182,-730 257.182,-733.5 257.182,-726.5"/>
</g>
<!-- \\App\\Storage\\MemoryPlugin -->
<g id="node6" class="node"><title>\\App\\Storage\\MemoryPlugin</title>
<polygon fill="none" stroke="black" points="572.667,-694 474.667,-694 474.667,-658 572.667,-658 572.667,-694"/>
<text text-anchor="middle" x="523.667" y="-673.2" font-family="Courier,monospace" font-size="11.00">MemoryPlugin</text>
</g>
<!-- \\App\\Storage\\MemoryPlugin&#45;&gt;\\App\\Storage\\AdapterInterface -->
<g id="edge8" class="edge"><title>\\App\\Storage\\MemoryPlugin&#45;&gt;\\App\\Storage\\AdapterInterface</title>
<path fill="none" stroke="black" stroke-dasharray="1,5" d="M474.371,-683.737C417.607,-692.83 322.871,-708.007 257.468,-718.484"/>
<polygon fill="none" stroke="black" points="256.554,-715.086 247.234,-720.124 257.662,-721.998 256.554,-715.086"/>
</g>
<!-- \\App\\Domain\\Answer -->
<g id="node9" class="node"><title>\\App\\Domain\\Answer</title>
<polygon fill="none" stroke="black" points="213.084,-506 156.084,-506 156.084,-470 213.084,-470 213.084,-506"/>
<text text-anchor="middle" x="184.584" y="-485.2" font-family="Courier,monospace" font-size="11.00">Answer</text>
</g>
<!-- \\App\\Domain\\Question -->
<g id="node10" class="node"><title>\\App\\Domain\\Question</title>
<polygon fill="none" stroke="black" points="220.084,-560 149.084,-560 149.084,-524 220.084,-524 220.084,-560"/>
<text text-anchor="middle" x="184.584" y="-539.2" font-family="Courier,monospace" font-size="11.00">Question</text>
</g>
<!-- \\App\\Domain\\User -->
<g id="node11" class="node"><title>\\App\\Domain\\User</title>
<polygon fill="none" stroke="black" points="211.584,-614 157.584,-614 157.584,-578 211.584,-578 211.584,-614"/>
<text text-anchor="middle" x="184.584" y="-593.2" font-family="Courier,monospace" font-size="11.00">User</text>
</g>
<!-- \\App\\Domain\\UserBuilder -->
<g id="node12" class="node"><title>\\App\\Domain\\UserBuilder</title>
<polygon fill="none" stroke="black" points="569.167,-614 478.167,-614 478.167,-578 569.167,-578 569.167,-614"/>
<text text-anchor="middle" x="523.667" y="-593.2" font-family="Courier,monospace" font-size="11.00">UserBuilder</text>
</g>
<!-- \\App\\Domain\\UserBuilder&#45;&gt;\\App\\Domain\\User -->
<g id="edge9" class="edge"><title>\\App\\Domain\\UserBuilder&#45;&gt;\\App\\Domain\\User</title>
<path fill="none" stroke="black" d="M477.905,-596C410.526,-596 284.324,-596 222.133,-596"/>
<polygon fill="none" stroke="black" points="222.005,-592.5 212.005,-596 222.005,-599.5 222.005,-592.5"/>
</g>
<!-- \\App\\Domain\\QuestionBuilder -->
<g id="node13" class="node"><title>\\App\\Domain\\QuestionBuilder</title>
<polygon fill="none" stroke="black" points="582.667,-560 464.667,-560 464.667,-524 582.667,-524 582.667,-560"/>
<text text-anchor="middle" x="523.667" y="-539.2" font-family="Courier,monospace" font-size="11.00">QuestionBuilder</text>
</g>
<!-- \\App\\Domain\\QuestionBuilder&#45;&gt;\\App\\Domain\\Question -->
<g id="edge10" class="edge"><title>\\App\\Domain\\QuestionBuilder&#45;&gt;\\App\\Domain\\Question</title>
<path fill="none" stroke="black" d="M464.337,-542C398.032,-542 291.204,-542 230.869,-542"/>
<polygon fill="none" stroke="black" points="230.523,-538.5 220.523,-542 230.523,-545.5 230.523,-538.5"/>
</g>
<!-- \\App\\Domain\\AnswerBuilder -->
<g id="node14" class="node"><title>\\App\\Domain\\AnswerBuilder</title>
<polygon fill="none" stroke="black" points="575.667,-506 471.667,-506 471.667,-470 575.667,-470 575.667,-506"/>
<text text-anchor="middle" x="523.667" y="-485.2" font-family="Courier,monospace" font-size="11.00">AnswerBuilder</text>
</g>
<!-- \\App\\Domain\\AnswerBuilder&#45;&gt;\\App\\Domain\\Answer -->
<g id="edge11" class="edge"><title>\\App\\Domain\\AnswerBuilder&#45;&gt;\\App\\Domain\\Answer</title>
<path fill="none" stroke="black" d="M471.471,-488C403.364,-488 284.503,-488 223.732,-488"/>
<polygon fill="none" stroke="black" points="223.437,-484.5 213.437,-488 223.437,-491.5 223.437,-484.5"/>
</g>
<!-- \\App\\Actions\\ProfileAction -->
<g id="node15" class="node"><title>\\App\\Actions\\ProfileAction</title>
<polygon fill="none" stroke="black" points="575.667,-426 471.667,-426 471.667,-390 575.667,-390 575.667,-426"/>
<text text-anchor="middle" x="523.667" y="-405.2" font-family="Courier,monospace" font-size="11.00">ProfileAction</text>
</g>
<!-- \\App\\Actions\\HomeAction -->
<g id="node16" class="node"><title>\\App\\Actions\\HomeAction</title>
<polygon fill="none" stroke="black" points="565.667,-372 481.667,-372 481.667,-336 565.667,-336 565.667,-372"/>
<text text-anchor="middle" x="523.667" y="-351.2" font-family="Courier,monospace" font-size="11.00">HomeAction</text>
</g>
<!-- \\App\\Actions\\LoginAction -->
<g id="node17" class="node"><title>\\App\\Actions\\LoginAction</title>
<polygon fill="none" stroke="black" points="569.167,-318 478.167,-318 478.167,-282 569.167,-282 569.167,-318"/>
<text text-anchor="middle" x="523.667" y="-297.2" font-family="Courier,monospace" font-size="11.00">LoginAction</text>
</g>
<!-- \\App\\Models\\UserEloquentModel -->
<g id="node18" class="node"><title>\\App\\Models\\UserEloquentModel</title>
<polygon fill="none" stroke="black" points="589.167,-238 458.167,-238 458.167,-202 589.167,-202 589.167,-238"/>
<text text-anchor="middle" x="523.667" y="-217.2" font-family="Courier,monospace" font-size="11.00">UserEloquentModel</text>
</g>
<!-- \\Illuminate\\Database\\Eloquent\\Model -->
<g id="node21" class="node"><title>\\Illuminate\\Database\\Eloquent\\Model</title>
<ellipse fill="none" stroke="black" cx="184.584" cy="-18" rx="184.667" ry="18"/>
<text text-anchor="middle" x="184.584" y="-14.3" font-family="Times,serif" font-size="14.00" fill="gray">\Illuminate\Database\Eloquent\Model</text>
</g>
<!-- \\App\\Models\\UserEloquentModel&#45;&gt;\\Illuminate\\Database\\Eloquent\\Model -->
<g id="edge3" class="edge"><title>\\App\\Models\\UserEloquentModel&#45;&gt;\\Illuminate\\Database\\Eloquent\\Model</title>
<path fill="none" stroke="black" d="M458.145,-203.279C449.578,-200.269 441.043,-196.845 433.167,-193 346.78,-150.827 257.643,-79.7607 213.647,-42.4904"/>
<polygon fill="none" stroke="black" points="215.847,-39.7669 205.968,-35.9391 211.304,-45.0922 215.847,-39.7669"/>
</g>
<!-- \\App\\Models\\QuestionEloquentModel -->
<g id="node19" class="node"><title>\\App\\Models\\QuestionEloquentModel</title>
<polygon fill="none" stroke="black" points="602.667,-184 444.667,-184 444.667,-148 602.667,-148 602.667,-184"/>
<text text-anchor="middle" x="523.667" y="-163.2" font-family="Courier,monospace" font-size="11.00">QuestionEloquentModel</text>
</g>
<!-- \\App\\Models\\QuestionEloquentModel&#45;&gt;\\Illuminate\\Database\\Eloquent\\Model -->
<g id="edge4" class="edge"><title>\\App\\Models\\QuestionEloquentModel&#45;&gt;\\Illuminate\\Database\\Eloquent\\Model</title>
<path fill="none" stroke="black" d="M465.473,-147.982C454.657,-144.25 443.499,-140.176 433.167,-136 359.759,-106.331 277.258,-65.4197 228.447,-40.3882"/>
<polygon fill="none" stroke="black" points="229.934,-37.2173 219.441,-35.7536 226.731,-43.4415 229.934,-37.2173"/>
</g>
<!-- \\App\\Middleware\\PasswordAuthentication -->
<g id="node20" class="node"><title>\\App\\Middleware\\PasswordAuthentication</title>
<polygon fill="none" stroke="black" points="606.167,-104 441.167,-104 441.167,-68 606.167,-68 606.167,-104"/>
<text text-anchor="middle" x="523.667" y="-83.2" font-family="Courier,monospace" font-size="11.00">PasswordAuthentication</text>
</g>
</g>
</svg>
