<?xml version="1.0" encoding="UTF-8" standalone="no"?>
<!DOCTYPE svg PUBLIC "-//W3C//DTD SVG 1.1//EN"
 "http://www.w3.org/Graphics/SVG/1.1/DTD/svg11.dtd">
<!-- Generated by graphviz version 2.38.0 (20140413.2041)
 -->
<!-- Title: G Pages: 1 -->
<svg width="639pt" height="714pt"
 viewBox="0.00 0.00 639.17 714.00" xmlns="http://www.w3.org/2000/svg" xmlns:xlink="http://www.w3.org/1999/xlink">
<g id="graph0" class="graph" transform="scale(1 1) rotate(0) translate(4 710)">
<title>G</title>
<polygon fill="white" stroke="none" points="-4,4 -4,-710 635.167,-710 635.167,4 -4,4"/>
<g id="clust1" class="cluster"><title>cluster_Global</title>
<path fill="none" stroke="gray" d="M100.084,-44C100.084,-44 611.167,-44 611.167,-44 617.167,-44 623.167,-50 623.167,-56 623.167,-56 623.167,-686 623.167,-686 623.167,-692 617.167,-698 611.167,-698 611.167,-698 100.084,-698 100.084,-698 94.0836,-698 88.0836,-692 88.0836,-686 88.0836,-686 88.0836,-56 88.0836,-56 88.0836,-50 94.0836,-44 100.084,-44"/>
<text text-anchor="middle" x="355.625" y="-685.2" font-family="Times,serif" font-size="11.00" fill="gray">Global</text>
</g>
<g id="clust2" class="cluster"><title>cluster_\App</title>
<path fill="none" stroke="gray" d="M108.084,-52C108.084,-52 603.167,-52 603.167,-52 609.167,-52 615.167,-58 615.167,-64 615.167,-64 615.167,-658 615.167,-658 615.167,-664 609.167,-670 603.167,-670 603.167,-670 108.084,-670 108.084,-670 102.084,-670 96.0836,-664 96.0836,-658 96.0836,-658 96.0836,-64 96.0836,-64 96.0836,-58 102.084,-52 108.084,-52"/>
<text text-anchor="middle" x="355.625" y="-657.2" font-family="Times,serif" font-size="11.00" fill="gray">App</text>
</g>
<g id="clust3" class="cluster"><title>cluster_\App\Actions</title>
<path fill="none" stroke="gray" d="M472.167,-516C472.167,-516 568.167,-516 568.167,-516 574.167,-516 580.167,-522 580.167,-528 580.167,-528 580.167,-630 580.167,-630 580.167,-636 574.167,-642 568.167,-642 568.167,-642 472.167,-642 472.167,-642 466.167,-642 460.167,-636 460.167,-630 460.167,-630 460.167,-528 460.167,-528 460.167,-522 466.167,-516 472.167,-516"/>
<text text-anchor="middle" x="520.167" y="-629.2" font-family="Times,serif" font-size="11.00" fill="gray">Actions</text>
</g>
<g id="clust4" class="cluster"><title>cluster_\App\Storage</title>
<path fill="none" stroke="gray" d="M116.084,-382C116.084,-382 571.667,-382 571.667,-382 577.667,-382 583.667,-388 583.667,-394 583.667,-394 583.667,-496 583.667,-496 583.667,-502 577.667,-508 571.667,-508 571.667,-508 116.084,-508 116.084,-508 110.084,-508 104.084,-502 104.084,-496 104.084,-496 104.084,-394 104.084,-394 104.084,-388 110.084,-382 116.084,-382"/>
<text text-anchor="middle" x="343.875" y="-495.2" font-family="Times,serif" font-size="11.00" fill="gray">Storage</text>
</g>
<g id="clust5" class="cluster"><title>cluster_\App\Models</title>
<path fill="none" stroke="gray" d="M445.167,-248C445.167,-248 595.167,-248 595.167,-248 601.167,-248 607.167,-254 607.167,-260 607.167,-260 607.167,-362 607.167,-362 607.167,-368 601.167,-374 595.167,-374 595.167,-374 445.167,-374 445.167,-374 439.167,-374 433.167,-368 433.167,-362 433.167,-362 433.167,-260 433.167,-260 433.167,-254 439.167,-248 445.167,-248"/>
<text text-anchor="middle" x="520.167" y="-361.2" font-family="Times,serif" font-size="11.00" fill="gray">Models</text>
</g>
<g id="clust6" class="cluster"><title>cluster_\App\Domain</title>
<path fill="none" stroke="gray" d="M488.667,-60C488.667,-60 551.667,-60 551.667,-60 557.667,-60 563.667,-66 563.667,-72 563.667,-72 563.667,-228 563.667,-228 563.667,-234 557.667,-240 551.667,-240 551.667,-240 488.667,-240 488.667,-240 482.667,-240 476.667,-234 476.667,-228 476.667,-228 476.667,-72 476.667,-72 476.667,-66 482.667,-60 488.667,-60"/>
<text text-anchor="middle" x="520.167" y="-227.2" font-family="Times,serif" font-size="11.00" fill="gray">Domain</text>
</g>
<!-- \\App\\Actions\\HomeAction -->
<g id="node1" class="node"><title>\\App\\Actions\\HomeAction</title>
<polygon fill="none" stroke="black" points="562.167,-614 478.167,-614 478.167,-578 562.167,-578 562.167,-614"/>
<text text-anchor="middle" x="520.167" y="-593.2" font-family="Courier,monospace" font-size="11.00">HomeAction</text>
</g>
<!-- \\App\\Actions\\ProfileAction -->
<g id="node2" class="node"><title>\\App\\Actions\\ProfileAction</title>
<polygon fill="none" stroke="black" points="572.167,-560 468.167,-560 468.167,-524 572.167,-524 572.167,-560"/>
<text text-anchor="middle" x="520.167" y="-539.2" font-family="Courier,monospace" font-size="11.00">ProfileAction</text>
</g>
<!-- \\App\\Storage\\MemoryStorage -->
<g id="node3" class="node"><title>\\App\\Storage\\MemoryStorage</title>
<polygon fill="none" stroke="black" points="572.167,-480 468.167,-480 468.167,-444 572.167,-444 572.167,-480"/>
<text text-anchor="middle" x="520.167" y="-459.2" font-family="Courier,monospace" font-size="11.00">MemoryStorage</text>
</g>
<!-- \\App\\Storage\\AdapterInterface -->
<g id="node5" class="node"><title>\\App\\Storage\\AdapterInterface</title>
<polygon fill="none" stroke="black" points="247.084,-480 122.084,-480 122.084,-444 247.084,-444 247.084,-480"/>
<text text-anchor="middle" x="184.584" y="-459.2" font-family="Courier,monospace" font-size="11.00">AdapterInterface</text>
</g>
<!-- \\App\\Storage\\MemoryStorage&#45;&gt;\\App\\Storage\\AdapterInterface -->
<g id="edge1" class="edge"><title>\\App\\Storage\\MemoryStorage&#45;&gt;\\App\\Storage\\AdapterInterface</title>
<path fill="none" stroke="black" stroke-dasharray="1,5" d="M468.14,-462C411.865,-462 320.896,-462 257.429,-462"/>
<polygon fill="none" stroke="black" points="257.096,-458.5 247.096,-462 257.096,-465.5 257.096,-458.5"/>
</g>
<!-- \\App\\Storage\\UserRepository -->
<g id="node4" class="node"><title>\\App\\Storage\\UserRepository</title>
<polygon fill="none" stroke="black" points="575.667,-426 464.667,-426 464.667,-390 575.667,-390 575.667,-426"/>
<text text-anchor="middle" x="520.167" y="-405.2" font-family="Courier,monospace" font-size="11.00">UserRepository</text>
</g>
<!-- \\App\\Storage\\RepositoryInterface -->
<g id="node6" class="node"><title>\\App\\Storage\\RepositoryInterface</title>
<polygon fill="none" stroke="black" points="257.084,-426 112.084,-426 112.084,-390 257.084,-390 257.084,-426"/>
<text text-anchor="middle" x="184.584" y="-405.2" font-family="Courier,monospace" font-size="11.00">RepositoryInterface</text>
</g>
<!-- \\App\\Storage\\UserRepository&#45;&gt;\\App\\Storage\\RepositoryInterface -->
<g id="edge2" class="edge"><title>\\App\\Storage\\UserRepository&#45;&gt;\\App\\Storage\\RepositoryInterface</title>
<path fill="none" stroke="black" stroke-dasharray="1,5" d="M464.456,-408C410.879,-408 328.583,-408 267.259,-408"/>
<polygon fill="none" stroke="black" points="267.221,-404.5 257.221,-408 267.221,-411.5 267.221,-404.5"/>
</g>
<!-- \\App\\Models\\UserEloquentModel -->
<g id="node7" class="node"><title>\\App\\Models\\UserEloquentModel</title>
<polygon fill="none" stroke="black" points="585.667,-346 454.667,-346 454.667,-310 585.667,-310 585.667,-346"/>
<text text-anchor="middle" x="520.167" y="-325.2" font-family="Courier,monospace" font-size="11.00">UserEloquentModel</text>
</g>
<!-- \\Illuminate\\Database\\Eloquent\\Model -->
<g id="node12" class="node"><title>\\Illuminate\\Database\\Eloquent\\Model</title>
<ellipse fill="none" stroke="black" cx="184.584" cy="-18" rx="184.667" ry="18"/>
<text text-anchor="middle" x="184.584" y="-14.3" font-family="Times,serif" font-size="14.00" fill="gray">\Illuminate\Database\Eloquent\Model</text>
</g>
<!-- \\App\\Models\\UserEloquentModel&#45;&gt;\\Illuminate\\Database\\Eloquent\\Model -->
<g id="edge3" class="edge"><title>\\App\\Models\\UserEloquentModel&#45;&gt;\\Illuminate\\Database\\Eloquent\\Model</title>
<path fill="none" stroke="black" d="M454.457,-311.994C446.994,-308.911 439.72,-305.276 433.167,-301 325.448,-230.713 236.881,-100.98 201.795,-44.9417"/>
<polygon fill="none" stroke="black" points="204.679,-42.9504 196.438,-36.291 198.727,-46.6356 204.679,-42.9504"/>
</g>
<!-- \\App\\Models\\QuestionEloquentModel -->
<g id="node8" class="node"><title>\\App\\Models\\QuestionEloquentModel</title>
<polygon fill="none" stroke="black" points="599.167,-292 441.167,-292 441.167,-256 599.167,-256 599.167,-292"/>
<text text-anchor="middle" x="520.167" y="-271.2" font-family="Courier,monospace" font-size="11.00">QuestionEloquentModel</text>
</g>
<!-- \\App\\Models\\QuestionEloquentModel&#45;&gt;\\Illuminate\\Database\\Eloquent\\Model -->
<g id="edge4" class="edge"><title>\\App\\Models\\QuestionEloquentModel&#45;&gt;\\Illuminate\\Database\\Eloquent\\Model</title>
<path fill="none" stroke="black" d="M457.639,-255.984C449.166,-252.523 440.773,-248.536 433.167,-244 338.153,-187.337 247.736,-90.2171 207.474,-43.9622"/>
<polygon fill="none" stroke="black" points="209.958,-41.4834 200.775,-36.2004 204.659,-46.0574 209.958,-41.4834"/>
</g>
<!-- \\App\\Domain\\User -->
<g id="node9" class="node"><title>\\App\\Domain\\User</title>
<polygon fill="none" stroke="black" points="547.167,-212 493.167,-212 493.167,-176 547.167,-176 547.167,-212"/>
<text text-anchor="middle" x="520.167" y="-191.2" font-family="Courier,monospace" font-size="11.00">User</text>
</g>
<!-- \\App\\Domain\\Answer -->
<g id="node10" class="node"><title>\\App\\Domain\\Answer</title>
<polygon fill="none" stroke="black" points="548.667,-158 491.667,-158 491.667,-122 548.667,-122 548.667,-158"/>
<text text-anchor="middle" x="520.167" y="-137.2" font-family="Courier,monospace" font-size="11.00">Answer</text>
</g>
<!-- \\App\\Domain\\Question -->
<g id="node11" class="node"><title>\\App\\Domain\\Question</title>
<polygon fill="none" stroke="black" points="555.667,-104 484.667,-104 484.667,-68 555.667,-68 555.667,-104"/>
<text text-anchor="middle" x="520.167" y="-83.2" font-family="Courier,monospace" font-size="11.00">Question</text>
</g>
</g>
</svg>
